<!DOCTYPE svg PUBLIC "-//W3C//DTD SVG 1.1//EN" "http://www.w3.org/Graphics/SVG/1.1/DTD/svg11.dtd">
<!-- Uploaded to: SVG Repo, www.svgrepo.com, Transformed by: SVG Repo Mixer Tools -->
<svg height="106px" width="106px" version="1.1" id="Layer_1" xmlns="http://www.w3.org/2000/svg" xmlns:xlink="http://www.w3.org/1999/xlink" viewBox="-51.2 -51.2 614.40 614.40" xml:space="preserve" fill="#ffffff" stroke="#ffffff" transform="matrix(1, 0, 0, 1, 0, 0)rotate(0)">
<g id="SVGRepo_bgCarrier" stroke-width="0"/>
<g id="SVGRepo_tracerCarrier" stroke-linecap="round" stroke-linejoin="round" stroke="#CCCCCC" stroke-width="1.024"/>
<g id="SVGRepo_iconCarrier"> <path style="fill:#7ebe7f;" d="M84.966,347.162l5.565-66.008H65.892c-36.02,0-65.324-29.303-65.324-65.324V65.324 C0.57,29.303,29.873,0,65.894,0h184.319c36.019,0,65.324,29.303,65.324,65.324v97.861c0,10.748-8.714,19.462-19.462,19.462H261.79 c-14.556,0-26.4,11.849-26.4,26.413v52.895c0,6.003-2.77,11.671-7.507,15.358l-111.567,86.844 C103.036,374.491,83.538,364.106,84.966,347.162z"/> <path style="fill:#7bc680;" d="M395.685,507.878l-106.63-83.001h-27.266c-36.019,0-65.324-29.303-65.324-65.324V209.059 c0-36.027,29.303-65.337,65.324-65.337h184.319c36.02,0,65.324,29.31,65.324,65.337v150.494c0,36.02-29.305,65.324-65.324,65.324 h-24.639l5.565,66.008C428.469,507.883,408.946,518.197,395.685,507.878z"/> <g> <circle style="fill:#E6E7E8;" cx="406.537" cy="284.627" r="16.893"/> <circle style="fill:#E6E7E8;" cx="353.951" cy="284.627" r="16.893"/> <circle style="fill:#E6E7E8;" cx="301.364" cy="284.627" r="16.893"/> </g> </g>
</svg>